# AST/ASF file generated using VICON BodyLanguage
# -----------------------------------------------
:version 1.10
:name VICON
:units
  mass 1.0
  length 0.45
  angle deg
:documentation
   .ast/.asf automatically generated from VICON data using
   VICON BodyBuilder and BodyLanguage model FoxedUp or BRILLIANT.MOD
:root
   order TX TY TZ RX RY RZ
   axis XYZ
   position 0 0 0  
   orientation 0 0 0 
:bonedata
  begin
     id 1 
     name lhipjoint
     direction 0.561001 -0.76473 0.316963 
     length 2.4722 
     axis 0 0 0  XYZ
  end
  begin
     id 2 
     name lfemur
     direction 0.34202 -0.939693 0  
     length 7.59403  
     axis 0 0 20  XYZ
    dof rx ry rz
    limits (-160.0 20.0)
           (-70.0 70.0)
           (-60.0 70.0)
  end
  begin
     id 3 
     name ltibia
     direction 0.34202 -0.939693 0   
     length 7.89655   
     axis 0 0 20   XYZ
    dof rx
    limits (-10.0 170.0)
  end
  begin
     id 4 
     name lfoot
     direction 0.061296 -0.168409 0.98381   
     length 2.73287   
     axis -90 7.62852e-016 20   XYZ
    dof rx rz
    limits (-45.0 90.0)
           (-70.0 20.0)
  end
  begin
     id 5 
     name ltoes
     direction 1.53547e-011 -4.21984e-011 1   
     length 1.37057   
     axis -90 7.62852e-016 20   XYZ
    dof rx
    limits (-90.0 20.0)
  end
  begin
     id 6 
     name rhipjoint
     direction -0.559611 -0.765599 0.317323   
     length 2.46939  
     axis 0 0 0  XYZ 
  end
  begin
     id 7 
     name rfemur
     direction -0.34202 -0.939693 0   
     length 7.53712   
     axis 0 0 -20   XYZ
    dof rx ry rz
    limits (-160.0 20.0)
           (-70.0 70.0)
           (-70.0 60.0)
  end
  begin
     id 8 
     name rtibia
     direction -0.34202 -0.939693 0   
     length 8.12549   
     axis 0 0 -20   XYZ
    dof rx
    limits (-10.0 170.0)
 end
 begin
     id 9 
     name rfoot
     direction -0.066984 -0.184037 0.980634   
     length 2.67541  
     axis -90 -7.62852e-016 -20   XYZ
    dof rx rz
    limits (-45.0 90.0)
           (-20.0 70.0)
  end
  begin
     id 10 
     name rtoes
     direction -1.53549e-011 -4.21786e-011 1   
     length 1.34085   
     axis -90 -7.62852e-016 -20   XYZ
    dof rx
    limits (-90.0 20.0)
  end
  begin
     id 11 
     name lowerback
     direction -0.0522728 0.992594 -0.109658   
     length 2.05633   
     axis 0 0 0   XYZ
    dof rx ry rz
    limits (-20.0 45.0)
           (-30.0 30.0)
           (-30.0 30.0)
  end
  begin
     id 12 
     name upperback
     direction 0.00589338 0.999977 0.00335704   
     length 2.05845   
     axis 0 0 0   XYZ
    dof rx ry rz
    limits (-20.0 45.0)
           (-30.0 30.0)
           (-30.0 30.0)
  end
  begin
     id 13 
     name thorax
     direction 0.0292928 0.998059 0.0549487   
     length 2.09281   
     axis 0 0 0   XYZ
    dof rx ry rz
    limits (-20.0 45.0)
           (-30.0 30.0)
           (-30.0 30.0)
  end
  begin
     id 14 
     name lowerneck
     direction 0.0356368 0.980775 0.191858   
     length 1.84767   
     axis 0 0 0   XYZ
    dof rx ry rz
    limits (-20.0 45.0)
           (-30.0 30.0)
           (-30.0 30.0)
  end
  begin
     id 15 
     name upperneck
     direction -0.0227605 0.98931 -0.14404   
     length 1.89582   
     axis 0 0 0   XYZ
    dof rx ry rz
    limits (-20.0 45.0)
           (-30.0 30.0)
           (-30.0 30.0)
  end
  begin
     id 16
     name head
     direction -0.00932985 0.997511 -0.0698904  
     length 1.90213  
     axis 0 0 0   XYZ
    dof rx ry rz
    limits (-20.0 45.0)
           (-30.0 30.0)
           (-30.0 30.0)
  end
  begin
     id 17 
     name lclavicle
     direction 0.873442 0.479511 0.0846686  
     length 3.41193  
     axis 0 0 0   XYZ
    dof ry rz
    limits (-20.0 10.0)
           (0.0 20.0)
  end
  begin
     id 18 
     name lhumerus
     direction 1 -4.4897e-011 -5.62117e-018   
     length 5.59864   
     axis 180 -30 -90   XYZ
    dof rx ry rz
    limits (-60.0 90.0)
           (-90.0 90.0)
           (-90.0 90.0)
  end
  begin
     id 19
     name lradius
     direction 1 -4.48966e-011 -6.26295e-027   
     length 3.59542   
     axis 180 -30 -90   XYZ
    dof rx
    limits (-10.0 170.0)
  end
  begin
     id 20
     name lwrist
     direction 1 -4.48947e-011 -1.74096e-026   
     length 1.79771   
     axis 1.04567e-014 90 90   XYZ
    dof ry
    limits (-180.0 0.0)
 end
  begin
     id 21 
     name lhand
     direction 1 -4.49085e-011 -3.48469e-026   
     length 0.572014   
     axis 2.22196e-014 90 90   XYZ
    dof rx rz
    limits (-90.0 90.0)
           (-45.0 45.0)
  end
  begin
     id 22 
     name lfingers
     direction 1 -4.48884e-011 -6.96135e-026   
     length 0.461173   
     axis 4.44383e-014 90 90   XYZ
    dof rx
    limits (0.0 90.0)
  end
  begin
     id 23
     name lthumb
     direction 0.707107 -6.34976e-011 0.707107   
     length 0.662154   
     axis -90 45 -5.4397e-014   XYZ
    dof rx rz
    limits (-45.0 45.0)
           (-45.0 45.0)
  end
  begin
     id 24 
     name rclavicle
     direction -0.890242 0.443271 0.104786   
     length 3.46753  
     axis 0 0 0   XYZ 
    dof ry rz
    limits (-10.0 20.0)
           (-20.0 0.0)
  end
  begin
     id 25 
     name rhumerus
     direction -1 -4.48963e-011 -5.41723e-018  
     length 5.8094   
     axis 180 30 90   XYZ
    dof rx ry rz
    limits (-90.0 60.0)
           (-90.0 90.0)
           (-90.0 90.0)
  end
  begin
     id 26 
     name rradius
     direction -1 -4.48958e-011 -6.51059e-027   
     length 3.66953   
     axis 180 30 90   XYZ
    dof rx
    limits (-10.0 170.0)
  end
  begin
     id 27 
     name rwrist
     direction -1 -4.48975e-011 -1.74124e-026   
     length 1.83476   
     axis 1.04567e-014 -90 -90   XYZ
    dof ry
    limits (-180.0 0.0)
  end
  begin
     id 28
     name rhand
     direction -1 -4.49013e-011 -3.48326e-026   
     length 0.57843   
     axis 2.22196e-014 -90 -90   XYZ
    dof rx rz
    limits (-90.0 90.0)
           (-45.0 45.0)
  end
  begin
     id 29
     name rfingers
     direction -1 -4.49023e-011 -6.9669e-026   
     length 0.466345   
     axis 4.44383e-014 -90 -90   XYZ
    dof rx
    limits (0.0 90.0)
  end
  begin
     id 30
     name rthumb
     direction -0.707107 -6.34926e-011 0.707107   
     length 0.669581   
     axis -90 -45 5.4397e-014   XYZ
    dof rx rz
    limits (-45.0 45.0)
           (-45.0 45.0)
  end
:hierarchy
  begin
    root lhipjoint rhipjoint lowerback
    lhipjoint lfemur
    lfemur ltibia
    ltibia lfoot
    lfoot ltoes
    rhipjoint rfemur
    rfemur rtibia
    rtibia rfoot
    rfoot rtoes
    lowerback upperback
    upperback thorax
    thorax lowerneck lclavicle rclavicle
    lowerneck upperneck
    upperneck head
    lclavicle lhumerus
    lhumerus lradius
    lradius lwrist
    lwrist lhand lthumb
    lhand lfingers
    rclavicle rhumerus
    rhumerus rradius
    rradius rwrist
    rwrist rhand rthumb
    rhand rfingers
  end

#!OML:ASF H:\SkateBoarding\Project 1\Capture day 1\Session 1\Skater.ASF
:FULLY-SPECIFIED
:DEGREES
79
root -13.2214 16.7446 -6.93878 11.048 37.9341 6.70713
lowerback 10.5939 -1.29356 -4.81697
upperback -0.349158 -2.42345 -1.83145
thorax -6.20147 -1.05683 1.16487
lowerneck -20.3585 -0.984003 1.10207
upperneck 37.027 -0.557041 -2.39779
head 16.836 -0.294146 -1.33743
rclavicle 3.03147e-015 3.69739e-014
rhumerus -31.7597 27.4459 -85.4082
rradius 53.5741
rwrist -17.8866
rhand -41.7533 0.243483
rfingers 7.12502
rthumb -14.6575 -29.2185
lclavicle 3.03147e-015 3.69739e-014
lhumerus -14.9387 -23.7456 80.1812
lradius 70.3396
lwrist 35.3267
lhand -27.7444 16.9476
lfingers 7.12502
lthumb -1.13903 46.9243
rfemur -53.4773 -2.36586 3.69313
rtibia 81.6153
rfoot -24.0378 23.5269
rtoes -8.50335
lfemur 24.0487 -20.9982 -5.56956
ltibia -1.27222e-014
lfoot -10.0194 -1.87684
ltoes 24.2059
80
root -13.2354 16.8309 -6.50586 11.1097 38.5613 6.91649
lowerback 10.6472 -1.54361 -5.01683
upperback -0.410278 -2.78852 -1.85663
thorax -6.26948 -1.22674 1.30835
lowerneck -20.2881 -0.814159 1.20066
upperneck 37.1286 -0.279159 -2.52105
head 16.8798 -0.1828 -1.35593
rclavicle 2.84262e-014 -1.96797e-014
rhumerus -32.2615 28.5236 -85.7923
rradius 53.6
rwrist -18.0545
rhand -41.4223 0.0776396
rfingers 7.12502
rthumb -14.3386 -29.4072
lclavicle 2.84262e-014 -1.96797e-014
lhumerus -14.5632 -23.7159 80.1258
lradius 71.4735
lwrist 34.9569
lhand -28.5292 15.9822
lfingers 7.12502
lthumb -1.89706 45.9535
rfemur -52.5216 -3.01789 4.00704
rtibia 80.9712
rfoot -24.418 23.3705
rtoes -8.62099
lfemur 24.3147 -21.2038 -5.19616
ltibia -9.54166e-015
lfoot -11.3524 2.69111
ltoes 22.001
81
root -13.2478 16.9133 -6.07881 11.2439 39.152 7.17562
lowerback 10.6372 -1.6882 -5.10775
upperback -0.468611 -3.001 -1.97268
thorax -6.31598 -1.32728 1.2702
lowerneck -20.3149 -0.737634 1.12415
upperneck 37.3303 -0.162716 -2.40978
head 16.998 -0.126181 -1.27312
rclavicle -2.44008e-014 -5.36719e-015
rhumerus -32.8042 29.2697 -86.1407
rradius 53.6746
rwrist -18.3218
rhand -41.2707 -0.0243554
rfingers 7.12502
rthumb -14.1925 -29.5195
lclavicle -2.44008e-014 -5.36719e-015
lhumerus -14.1435 -24.0883 80.1582
lradius 72.4705
lwrist 34.5181
lhand -29.3862 15.1761
lfingers 7.12502
lthumb -2.72472 45.1384
rfemur -51.6289 -3.62956 4.27547
rtibia 80.2993
rfoot -24.9828 22.9421
rtoes -9.59513
lfemur 24.6584 -21.3397 -4.96725
ltibia -9.54166e-015
lfoot -12.691 8.46339
ltoes 19.27
82
root -13.2603 17.0093 -5.64969 11.5696 39.7425 7.63748
lowerback 10.5598 -1.83901 -5.30558
upperback -0.535251 -3.23388 -2.14525
thorax -6.33006 -1.43565 1.23269
lowerneck -20.3735 -0.662359 1.0498
upperneck 37.5733 -0.0639729 -2.25846
head 17.1465 -0.0703737 -1.17651
rclavicle 8.60738e-014 -3.69739e-014
rhumerus -33.3037 29.8607 -86.489
rradius 53.7365
rwrist -18.4335
rhand -40.9677 -0.0633311
rfingers 7.12502
rthumb -13.9005 -29.5787
lclavicle 8.60738e-014 -3.69739e-014
lhumerus -13.6885 -24.4124 80.2295
lradius 73.329
lwrist 34.0311
lhand -30.005 14.3988
lfingers 7.12502
lthumb -3.32225 44.3527
rfemur -50.7307 -4.19314 4.33447
rtibia 79.5383
rfoot -25.5799 22.5379
rtoes -10.324
lfemur 24.9546 -21.4531 -4.98275
ltibia -1.04958e-013
lfoot -14.9977 11.1287
ltoes 19.5767
83
root -13.2787 17.1071 -5.2225 11.948 40.2123 8.12302
lowerback 10.5165 -1.98205 -5.62101
upperback -0.623854 -3.47114 -2.25698
thorax -6.37605 -1.53984 1.3264
lowerneck -20.4686 -0.573033 0.802435
upperneck 37.8398 0.124347 -2.09639
head 17.3212 -0.00277413 -1.02588
rclavicle 1.01629e-013 6.36111e-015
rhumerus -33.7534 30.5984 -86.7952
rradius 53.87
rwrist -18.6348
rhand -40.8471 -0.172161
rfingers 7.12502
rthumb -13.7843 -29.6955
lclavicle 1.01629e-013 6.36111e-015
lhumerus -13.3119 -24.5958 80.3896
lradius 74.1145
lwrist 33.1494
lhand -30.9945 13.7988
lfingers 7.12502
lthumb -4.27782 43.7356
rfemur -49.8805 -4.40368 4.34886
rtibia 78.7434
rfoot -25.9934 22.2981
rtoes -10.1677
lfemur 25.3087 -21.4025 -5.18566
ltibia -2.54444e-014
lfoot -16.6472 17.7881
ltoes 13.9905
84
root -13.2926 17.203 -4.80412 12.4195 40.6737 8.83893
lowerback 10.4825 -2.06649 -5.9384
upperback -0.641528 -3.6328 -2.47861
thorax -6.36248 -1.61072 1.29284
lowerneck -20.5925 -0.503147 0.66781
upperneck 38.0013 0.25401 -1.98494
head 17.4447 0.0486761 -0.927514
rclavicle 3.598e-014 -1.47101e-014
rhumerus -34.0619 31.0226 -87.0043
rradius 53.957
rwrist -18.8843
rhand -40.7025 0.107658
rfingers 7.12502
rthumb -13.6449 -29.4251
lclavicle 3.598e-014 -1.47101e-014
lhumerus -12.8607 -24.8874 80.5633
lradius 74.8377
lwrist 32.4812
lhand -31.3251 12.9606
lfingers 7.12502
lthumb -4.59707 42.8907
rfemur -48.9718 -4.70217 4.18458
rtibia 77.9696
rfoot -26.6603 21.7345
rtoes -10.7954
lfemur 25.7685 -21.3487 -5.73191
ltibia 4.13472e-014
lfoot -17.5996 22.8991
ltoes 11.2181
85
root -13.3124 17.3106 -4.38606 12.7319 40.9869 9.20466
lowerback 10.4664 -2.00278 -5.99858
upperback -0.69738 -3.57098 -2.7175
thorax -6.42945 -1.57861 1.0665
lowerneck -20.6236 -0.55941 0.555296
upperneck 38.1392 0.135064 -1.76142
head 17.5258 0.0208501 -0.830964
rclavicle -4.67144e-015 9.54166e-015
rhumerus -34.381 31.0395 -87.2007
rradius 54.113
rwrist -19.3035
rhand -40.6183 0.476957
rfingers 7.12502
rthumb -13.5638 -29.0612
lclavicle -4.67144e-015 9.54166e-015
lhumerus -12.3599 -25.4881 80.7841
lradius 75.4294
lwrist 31.7416
lhand -31.1691 12.2845
lfingers 7.12502
lthumb -4.4464 42.2178
rfemur -48.2054 -4.5469 4.32024
rtibia 77.1495
rfoot -27.5345 20.8797
rtoes -10.286
lfemur 26.1168 -21.0669 -6.08696
ltibia -1.59028e-014
lfoot -17.2686 28.3748
ltoes 8.56425
86
root -13.3283 17.406 -3.97849 13.2416 41.2681 10.0019
lowerback 10.5151 -1.88491 -6.30252
upperback -0.690454 -3.47359 -3.06176
thorax -6.46132 -1.52325 0.860301
lowerneck -20.6865 -0.627717 0.632459
upperneck 38.1886 -0.00252948 -1.73703
head 17.566 -0.0163981 -0.861998
rclavicle 8.56265e-014 1.90833e-014
rhumerus -34.578 30.8264 -87.2668
rradius 54.2573
rwrist -19.7565
rhand -40.3537 0.899111
rfingers 7.12502
rthumb -13.3087 -28.6559
lclavicle 8.56265e-014 1.90833e-014
lhumerus -11.9041 -26.1793 81.1037
lradius 76.0248
lwrist 30.8056
lhand -31.1529 11.6831
lfingers 7.12502
lthumb -4.43082 41.6168
rfemur -47.3752 -4.47446 4.03524
rtibia 76.4145
rfoot -28.184 20.2394
rtoes -11.0895
lfemur 21.5893 -20.7098 -6.97188
ltibia 9.75488
lfoot -18.7444 24.9781
ltoes 8.39207
87
root -13.3472 17.4964 -3.57429 13.4675 41.5345 10.4193
lowerback 10.6224 -1.8627 -6.52715
upperback -0.671686 -3.48314 -3.1265
thorax -6.49353 -1.51944 0.922028
lowerneck -20.7397 -0.590636 0.366377
upperneck 38.1416 0.163209 -1.71845
head 17.558 0.0140927 -0.771371
rclavicle -1.30154e-013 3.45885e-014
rhumerus -34.6574 31.1839 -87.2216
rradius 54.3178
rwrist -19.7937
rhand -40.6562 1.0553
rfingers 7.12502
rthumb -13.6003 -28.4805
lclavicle -1.30154e-013 3.45885e-014
lhumerus -11.6227 -26.3198 81.6231
lradius 76.6497
lwrist 29.8852
lhand -31.2667 11.3035
lfingers 7.12502
lthumb -4.54066 41.2348
rfemur -46.5186 -4.09977 4.05927
rtibia 75.6599
rfoot -28.7771 19.7751
rtoes -10.4002
lfemur 17.2681 -20.3702 -7.42439
ltibia 19.0839
lfoot -18.4239 22.673
ltoes 5.5267
88
root -13.3664 17.5781 -3.1744 13.6182 41.7761 10.9171
lowerback 10.8812 -1.73943 -6.76231
upperback -0.651834 -3.38111 -3.31019
thorax -6.62476 -1.45871 0.852782
lowerneck -20.6866 -0.618824 0.247555
upperneck 38.1045 0.14334 -1.63701
head 17.5236 0.00303524 -0.715496
rclavicle 6.70898e-015 2.66371e-014
rhumerus -34.8611 31.332 -87.3439
rradius 54.2845
rwrist -19.3876
rhand -41.232 0.707148
rfingers 7.12502
rthumb -14.1552 -28.7906
lclavicle 6.70898e-015 2.66371e-014
lhumerus -11.4451 -26.753 82.1634
lradius 77.1792
lwrist 28.9946
lhand -31.2905 11.0115
lfingers 7.12502
lthumb -4.56367 40.9423
rfemur -45.5484 -3.60633 4.03059
rtibia 74.9711
rfoot -29.7169 18.9654
rtoes -11.0841
lfemur 14.2151 -18.5479 -7.43627
ltibia 25.879
lfoot -16.9562 20.1171
ltoes 2.79699
89
root -13.3837 17.6555 -2.77971 13.4162 42.1082 10.8995
lowerback 11.1196 -1.59454 -6.64
upperback -0.605328 -3.19492 -3.36698
thorax -6.73132 -1.36984 0.703718
lowerneck -20.5562 -0.699107 0.219941
upperneck 38.0099 0.0383879 -1.63963
head 17.4362 -0.0409096 -0.730542
rclavicle 9.37767e-014 -2.70347e-014
rhumerus -34.9171 31.1132 -87.235
rradius 54.2744
rwrist -19.3495
rhand -41.44 0.836397
rfingers 7.12502
rthumb -14.3557 -28.6472
lclavicle 9.37767e-014 -2.70347e-014
lhumerus -11.2027 -27.2531 82.8266
lradius 77.5255
lwrist 28.229
lhand -31.3383 10.4562
lfingers 7.12502
lthumb -4.60979 40.3861
rfemur -44.53 -3.09193 4.47962
rtibia 74.2364
rfoot -30.791 17.9599
rtoes -11.8142
lfemur 11.5587 -16.563 -7.00747
ltibia 31.8405
lfoot -15.6862 17.4376
ltoes -0.944409
90
root -13.4011 17.7342 -2.38326 13.2115 42.4665 10.9602
lowerback 11.4346 -1.47587 -6.62661
upperback -0.531648 -3.06001 -3.38291
thorax -6.84054 -1.30161 0.667261
lowerneck -20.5335 -0.744098 0.119785
upperneck 37.9223 0.00676943 -1.61972
head 17.3823 -0.0637213 -0.708279
rclavicle -4.00551e-014 8.34896e-015
rhumerus -34.7943 30.9738 -87.0073
rradius 54.1842
rwrist -19.2351
rhand -41.4312 0.824942
rfingers 7.12502
rthumb -14.3471 -28.6593
lclavicle -4.00551e-014 8.34896e-015
lhumerus -11.0678 -27.5599 83.5864
lradius 77.8443
lwrist 27.683
lhand -31.1351 9.58185
lfingers 7.12502
lthumb -4.41359 39.5159
rfemur -43.3791 -2.41303 4.82589
rtibia 73.4156
rfoot -31.7363 17.2242
rtoes -12.0934
lfemur 9.25309 -14.5553 -6.72601
ltibia 37.1285
lfoot -14.9906 15.1189
ltoes -5.18486
91
root -13.4178 17.8165 -1.98752 12.6994 43.0069 10.5406
lowerback 11.7745 -1.45173 -6.30632
upperback -0.492134 -3.00308 -3.20906
thorax -6.99945 -1.27873 0.674262
lowerneck -20.4662 -0.776777 -0.158868
upperneck 37.8831 0.0581145 -1.56891
head 17.3457 -0.0741232 -0.623628
rclavicle 3.08116e-015 4.92986e-014
rhumerus -34.6648 31.0314 -86.706
rradius 54.0583
rwrist -19.0593
rhand -41.4872 0.770012
rfingers 7.12502
rthumb -14.4011 -28.7104
lclavicle 3.08116e-015 4.92986e-014
lhumerus -11.0206 -27.6383 84.494
lradius 78.0515
lwrist 27.1038
lhand -30.9134 9.14921
lfingers 7.12502
lthumb -4.19952 39.0876
rfemur -42.1632 -1.78933 5.61899
rtibia 72.5358
rfoot -32.6773 16.504
rtoes -12.0922
lfemur 6.86717 -12.5575 -6.03039
ltibia 42.1105
lfoot -14.302 13.5658
ltoes -11.5351
92
root -13.4333 17.9214 -1.58301 11.9196 43.6277 9.81332
lowerback 12.2025 -1.39145 -5.74939
upperback -0.439146 -2.86783 -3.0289
thorax -7.2081 -1.22572 0.54438
lowerneck -20.4256 -0.853952 -0.312183
upperneck 37.8968 -0.0266576 -1.47402
head 17.3424 -0.113505 -0.569481
rclavicle -8.56265e-014 2.14687e-014
rhumerus -34.5366 30.66 -86.449
rradius 53.8473
rwrist -18.695
rhand -41.7721 0.732732
rfingers 7.12502
rthumb -14.6756 -28.7279
lclavicle -8.56265e-014 2.14687e-014
lhumerus -11.0109 -27.8979 85.4507
lradius 78.1968
lwrist 26.6852
lhand -30.916 8.60924
lfingers 7.12502
lthumb -4.20205 38.5475
rfemur -40.7232 -1.02295 6.7253
rtibia 71.5149
rfoot -33.7275 15.8048
rtoes -11.7879
lfemur 4.76301 -10.5787 -5.16125
ltibia 46.6701
lfoot -14.7487 11.71
ltoes -13.9088
